<?xml version="1.0" encoding="utf-8"?>
<!-- Generator: Adobe Illustrator 18.1.1, SVG Export Plug-In . SVG Version: 6.00 Build 0)  -->
<svg version="1.1" xmlns="http://www.w3.org/2000/svg" xmlns:xlink="http://www.w3.org/1999/xlink" x="0px" y="0px"
	 viewBox="0 0 127.9 126.9" enable-background="new 0 0 127.9 126.9" xml:space="preserve">
<path fill="#4F4F4F" d="M8.5,38.2c1.7-0.8,3.1-2,4.8-2.8c4.8-2.3,8.7-2.1,13.3,0.4c4.1,2.2,4.1,2.2,4.5,2.5c-0.1-0.1-0.1-3.9,0-4.3
	c0.4-1.6-1.5-2.9-1.2-4.5c-1.9-0.7-4-0.7-6.1-0.6c-2.5,0.1-5,0.6-7.3,1.4c-1.2,0.4-2.1,1.2-3,2.1c-0.7,0.6-1.5,1.2-2,1.9
	C10.5,35.6,9.2,36.7,8.5,38.2z"/>
<path fill="#4F4F4F" d="M8.9,85.9c0-1.8-0.6-3.7-0.7-5.5c-0.2-5.3,2.4-9.1,7.1-11.4c0.4-0.2,0.8-0.4,1.3-0.6
	c-0.2,0.1-2.9-2.5-3.3-2.7c-1.3-1-2.6-1.9-3.9-2.9c-1.4,1.5-2.3,3.4-3,5.3c-0.9,2.3-1.5,4.8-1.6,7.3c-0.1,1.2,0.3,2.5,0.7,3.6
	c0.3,0.9,0.5,1.8,1,2.6C7.4,83,7.9,84.7,8.9,85.9z"/>
<path class="face" d="M48.1,0.4c-0.7-0.1-1.3-0.2-2-0.3c-5.4-0.4-11.3,1.3-15.1,5.3c-3.2,3.4-4.8,8-5.2,12.6c-1,11.1,4.8,21.2,11.8,29.3
	c7.6,8.7,16.9,15.5,26.3,22c9.9,6.9,19.3,15.2,24.8,26.3c4.2,8.5,4,21.3-6.6,24.7c-3.6,1.1-7.5,0.8-11-0.6c-2.6-1-4.8-2.6-7.2-3.9
	c-0.5,1.8,2.5,4.4,3.7,5.4c1.8,1.5,3.9,2.6,6.1,3.4c2.7,1.1,5.5,1.8,8.5,2c8.6,0.4,15.6-5.4,18-13.4c2.9-10-1.3-21-7.4-28.9
	c-6.2-8.1-14-14.5-22-20.5c-9.3-7-17.8-13.6-25.7-22.1c-5.9-6.4-12.7-14.1-11-23.5c0.8-4.4,3.6-8.6,7.7-10.5C45.3,6,49.1,6.1,52.7,7
	c1.8,0.5,3.6,1.1,5.3,1.9c0.9,0.4,1.8,0.8,2.7,1.2c0.6,0.3,1.8,1.1,2.4,1c-0.1-0.5-0.4-1.1-0.7-1.4c-0.5-0.7-1.1-1.3-1.7-1.9
	c-1.3-1.3-2.7-2.5-4.2-3.6C54.1,2.3,51.2,1,48.1,0.4z"/>
<path class="face" d="M126.6,46.2c0.1-0.7,0.2-1.3,0.3-2c0.5-5.4-1.1-11.3-5.1-15.1c-3.4-3.2-8-4.8-12.5-5.3C98.1,22.7,88,28.4,79.8,35.3
	C71,42.8,64.2,52.1,57.5,61.4C50.4,71.3,42.1,80.6,31,85.9C22.4,90,9.6,89.7,6.4,79.1c-1.1-3.6-0.7-7.5,0.7-11
	c1-2.6,2.7-4.8,3.9-7.2c-1.8-0.5-4.4,2.5-5.5,3.7c-1.5,1.8-2.6,3.9-3.5,6C1,73.3,0.2,76.1,0,79c-0.5,8.5,5.2,15.7,13.2,18.1
	c10,3,21-1.1,29-7C50.4,84,56.9,76.2,63,68.3c7.1-9.2,13.8-17.6,22.4-25.4C91.9,37,99.7,30.2,109,32.1c4.4,0.9,8.5,3.7,10.4,7.8
	c1.6,3.4,1.5,7.3,0.5,10.9c-0.5,1.8-1.2,3.6-1.9,5.3c-0.4,0.9-0.8,1.8-1.2,2.6c-0.3,0.6-1.1,1.7-1,2.4c0.5-0.1,1.1-0.4,1.5-0.7
	c0.7-0.5,1.3-1.1,1.9-1.6c1.3-1.3,2.6-2.7,3.6-4.1C124.7,52.2,126,49.3,126.6,46.2z"/>
<path class="face" d="M60.1,24.2c0.9-1.1,4.5-6.5,4.8-6.9c3.1-3.8,6.1-7.1,10.8-8.9c5.4-2,12.2-0.2,15.6,4.5c2.9,3.9,3.8,9.1,4,13.9
	c0,1.1,0.2,2.4,0.3,3.8c0.1-0.6,0.4-1.5,0.5-1.7c1.8-7,2.4-14.9-1.9-21.1c-5.5-8-16.5-10.1-24.4-5c-5.4,3.5-9.7,8.2-13.3,13.4
	L60.1,24.2z"/>
<path class="face" d="M24.2,65.1c-1.1-0.9-6.5-4.5-6.9-4.8c-3.8-3.1-7.1-6.1-8.9-10.8c-2-5.4-0.2-12.2,4.5-15.6c3.9-2.9,9.1-3.8,13.9-4
	c1.1,0,2.4-0.2,3.8-0.3c-0.6-0.1-1.5-0.4-1.7-0.5c-7-1.8-14.9-2.4-21.1,1.9c-8,5.5-10.1,16.5-5,24.4c3.5,5.4,8.2,9.7,13.4,13.3
	L24.2,65.1z"/>
<path class="face" d="M65.6,102.7c-0.9,1.1-4.5,6.5-4.8,6.9c-3.1,3.8-6.1,7.1-10.8,8.9c-5.4,2-12.2,0.2-15.6-4.5c-2.9-3.9-3.8-9.1-4-13.9
	c0-1.1-0.2-2.4-0.3-3.8c-0.1,0.6-0.4,1.5-0.5,1.7c-1.8,7-2.4,14.9,1.9,21.1c5.5,8,16.5,10.1,24.4,5c5.4-3.5,9.7-8.2,13.3-13.4
	L65.6,102.7z"/>
<path class="face" d="M103.7,58.8c1.1,0.9,6.5,4.5,6.9,4.8c3.8,3.1,7.1,6.1,8.9,10.8c2,5.4,0.2,12.2-4.5,15.6c-3.9,2.9-9.1,3.8-13.9,4
	c-1.1,0-2.4,0.2-3.8,0.3c0.6,0.1,1.5,0.4,1.7,0.5c7,1.8,14.9,2.4,21.1-1.9c8-5.5,10.1-16.5,5-24.4c-3.5-5.4-8.2-9.7-13.4-13.3
	L103.7,58.8z"/>
</svg>
